#!OML:ASF I:\Actors\actors\Patient Classification 2\Patient 1\Session 1\actor1.ASF
:FULLY-SPECIFIED
:DEGREES
210
root -0.59211 18.1647 5.61012 4.23878 -16.2208 -3.2178
lowerback -1.03156 -2.5904 -2.75906
upperback -2.20343 -3.44894 1.02351
thorax -1.45838 -1.67627 2.5963
lowerneck -10.7464 2.23426 9.40872
upperneck 22.1564 -0.31862 5.96966
head 8.80898 1.19209 0.419279
rclavicle 3.98812e-015 -7.55382e-015
rhumerus -5.8922 52.5373 -60.047
rradius 124.773
rwrist -58.7724
rhand -5.58545 -48.0759
rfingers 7.12502
rthumb 20.2308 -77.0424
lclavicle 3.98812e-015 -7.55382e-015
lhumerus 32.6504 9.54207 66.8194
lradius 90.6683
lwrist 88.1948
lhand -36.4943 -12.0363
lfingers 7.12502
lthumb -9.5867 17.7256
rfemur 7.00189 10.0348 16.1679
rtibia -12.8975
rfoot -4.53436 -10.2009
rtoes -1.18787
lfemur 12.7783 2.54249 -11.721
ltibia -7.9567
lfoot -13.0061 19.9533
ltoes -3.86644
211
root -0.583438 18.1555 5.62332 3.9464 -16.7982 -3.23779
lowerback -0.99848 -2.82991 -2.81004
upperback -2.15473 -3.76774 1.14375
thorax -1.3952 -1.8359 2.74621
lowerneck -10.5142 2.59695 9.8204
upperneck 22.6401 0.120245 5.80599
head 8.94863 1.43239 0.348655
rclavicle -5.7983e-014 -1.98785e-015
rhumerus -1.73365 52.2897 -56.0853
rradius 125.239
rwrist -61.1395
rhand -5.40617 -49.1885
rfingers 7.12502
rthumb 20.4031 -78.1366
lclavicle -5.7983e-014 -1.98785e-015
lhumerus 34.1691 10.0494 66.8952
lradius 88.5111
lwrist 88.1887
lhand -36.3592 -11.1149
lfingers 7.12502
lthumb -9.45639 18.6529
rfemur 7.4102 10.4007 16.1698
rtibia -13.1806
rfoot -4.28672 -10.094
rtoes -1.10597
lfemur 13.255 3.08264 -11.7192
ltibia -7.84277
lfoot -13.2102 19.7867
ltoes -3.06484
212
root -0.57467 18.1467 5.63497 3.62936 -17.2996 -3.22636
lowerback -0.95119 -3.07165 -2.83898
upperback -2.10209 -4.09042 1.21275
thorax -1.33891 -1.99814 2.83154
lowerneck -10.152 2.91958 10.2663
upperneck 23.0092 0.525758 5.64823
head 9.02772 1.6527 0.267763
rclavicle 1.20886e-014 6.75868e-015
rhumerus 2.15099 51.8312 -52.3318
rradius 125.667
rwrist -63.3201
rhand -5.44065 -49.9849
rfingers 7.12502
rthumb 20.37 -78.9366
lclavicle 1.20886e-014 6.75868e-015
lhumerus 35.6375 10.4859 67.1421
lradius 86.2763
lwrist 87.799
lhand -36.082 -10.1199
lfingers 7.12502
lthumb -9.18891 19.6599
rfemur 7.84476 10.6968 16.1511
rtibia -13.4566
rfoot -4.05584 -10.0043
rtoes -0.921446
lfemur 13.7461 3.54107 -11.7247
ltibia -7.73941
lfoot -13.4889 19.6176
ltoes -2.12521
213
root -0.56632 18.1388 5.64519 3.39224 -17.7302 -3.19025
lowerback -0.83767 -3.31585 -2.89699
upperback -2.14119 -4.41916 1.29341
thorax -1.40957 -2.15959 2.95268
lowerneck -9.83595 3.18881 10.7624
upperneck 23.4382 0.867017 5.37372
head 9.1387 1.83968 0.132985
rclavicle -5.00689e-015 -1.03368e-014
rhumerus 5.52338 51.1971 -48.9192
rradius 126.091
rwrist -65.4003
rhand -5.29777 -50.7848
rfingers 7.12502
rthumb 20.5073 -79.7217
lclavicle -5.00689e-015 -1.03368e-014
lhumerus 36.984 10.8733 67.5757
lradius 83.8705
lwrist 87.0611
lhand -35.6419 -9.47034
lfingers 7.12502
lthumb -8.76425 20.3277
rfemur 8.18202 10.9246 16.0983
rtibia -13.7085
rfoot -3.85909 -9.92311
rtoes -0.832426
lfemur 14.1165 3.94349 -11.7605
ltibia -7.66114
lfoot -13.7308 19.5092
ltoes -1.74264
214
root -0.55741 18.132 5.65538 3.21396 -18.1612 -3.19804
lowerback -0.703899 -3.54588 -2.92996
upperback -2.20548 -4.72945 1.41157
thorax -1.51615 -2.31089 3.10181
lowerneck -9.66513 3.45523 11.203
upperneck 23.9641 1.18538 5.11712
head 9.31321 2.02083 0.0143298
rclavicle 8.81858e-014 -3.97569e-015
rhumerus 8.59 50.4389 -45.7863
rradius 126.477
rwrist -67.4271
rhand -5.07707 -51.7632
rfingers 7.12502
rthumb 20.7194 -80.6772
lclavicle 8.81858e-014 -3.97569e-015
lhumerus 38.2634 11.2911 68.2927
lradius 81.3669
lwrist 86.4282
lhand -35.2984 -9.04896
lfingers 7.12502
lthumb -8.43274 20.7627
rfemur 8.45433 11.1451 16.0833
rtibia -13.9515
rfoot -3.64379 -9.8268
rtoes -0.891199
lfemur 14.4201 4.35601 -11.7569
ltibia -7.57561
lfoot -13.8946 19.401
ltoes -1.44807
